<svg width="51" height="26" viewBox="0 0 51 26" fill="none" xmlns="http://www.w3.org/2000/svg">
<g id="Flag" clip-path="url(#clip0_1_43)">
<path id="Vector" d="M0 0H12.75L13.2759 0.53625H37.7241L38.25 0H51V26H38.25L37.7241 25.4637H13.2759L12.75 26H0V0Z" fill="#D62B1F"/>
<path id="Vector_2" d="M12.75 0H38.25V26H12.75V0ZM25.9781 23.9958L25.7391 19.3212C25.7356 19.2444 25.7491 19.1677 25.7785 19.0968C25.808 19.026 25.8526 18.9627 25.9092 18.9118C25.9658 18.8609 26.0328 18.8235 26.1054 18.8025C26.1781 18.7815 26.2544 18.7774 26.3288 18.7904L30.8922 19.6083L30.2759 17.875C30.2509 17.806 30.2477 17.7308 30.2668 17.6599C30.2858 17.589 30.3262 17.5259 30.3822 17.4796L35.3813 13.3521L34.255 12.8158C34.1789 12.7792 34.1186 12.7155 34.0854 12.6367C34.0521 12.5579 34.0482 12.4694 34.0744 12.3879L35.0625 9.28958L32.1831 9.9125C32.1051 9.92908 32.0239 9.91765 31.9532 9.88013C31.8825 9.84262 31.8267 9.78133 31.7953 9.70667L31.2375 8.36875L28.9903 10.8279C28.9389 10.8832 28.8714 10.92 28.7977 10.9328C28.7241 10.9456 28.6484 10.9337 28.582 10.8989C28.5155 10.8641 28.462 10.8083 28.4293 10.7398C28.3966 10.6714 28.3865 10.5939 28.4006 10.5192L29.4844 4.82083L27.7472 5.84458C27.7064 5.86896 27.6611 5.88453 27.6142 5.89034C27.5673 5.89615 27.5197 5.89208 27.4744 5.87837C27.429 5.86465 27.387 5.8416 27.3507 5.81063C27.3145 5.77967 27.2849 5.74144 27.2638 5.69833L25.5 2.16667L23.7362 5.69833C23.7151 5.74144 23.6855 5.77967 23.6493 5.81063C23.613 5.8416 23.571 5.86465 23.5256 5.87837C23.4803 5.89208 23.4327 5.89615 23.3858 5.89034C23.3389 5.88453 23.2936 5.86896 23.2528 5.84458L21.5156 4.82083L22.5994 10.5192C22.6135 10.5939 22.6034 10.6714 22.5707 10.7398C22.538 10.8083 22.4845 10.8641 22.418 10.8989C22.3516 10.9337 22.2759 10.9456 22.2023 10.9328C22.1286 10.92 22.0611 10.8832 22.0097 10.8279L19.7625 8.36875L19.2047 9.70667C19.1733 9.78133 19.1175 9.84262 19.0468 9.88013C18.9761 9.91765 18.8949 9.92908 18.8169 9.9125L15.9375 9.28958L16.9256 12.3879C16.9518 12.4694 16.9479 12.5579 16.9146 12.6367C16.8814 12.7155 16.8211 12.7792 16.745 12.8158L15.6188 13.3521L20.6178 17.4796C20.6738 17.5259 20.7142 17.589 20.7332 17.6599C20.7523 17.7308 20.7491 17.806 20.7241 17.875L20.1078 19.6083L24.6713 18.7904C24.7456 18.7774 24.8219 18.7815 24.8946 18.8025C24.9672 18.8235 25.0342 18.8609 25.0908 18.9118C25.1474 18.9627 25.192 19.026 25.2215 19.0968C25.2509 19.1677 25.2644 19.2444 25.2609 19.3212L25.0219 23.9958H25.9781Z" fill="white"/>
</g>
<defs>
<clipPath id="clip0_1_43">
<rect width="51" height="26" fill="white"/>
</clipPath>
</defs>
</svg>
