<svg width="173" height="64" viewBox="0 0 173 64" fill="none" xmlns="http://www.w3.org/2000/svg">
<g id="Layer_1" clip-path="url(#clip0_1_21)">
<path id="Vector" d="M13.6624 31.836V16.2048H15.7303V29.8057H21.4456V31.8387H13.6624V31.836Z" fill="#787878"/>
<path id="Vector_2" d="M45.6767 16.2021H47.7555V27.2125C47.5754 28.4691 47.0462 29.5309 46.1677 30.398C45.101 31.4411 43.8188 31.9614 42.3211 31.9614C40.8234 31.9614 39.5412 31.4411 38.4799 30.4033C37.4187 29.3655 36.8867 28.1116 36.8867 26.6469V16.2021H38.9655V26.6469C38.9655 27.546 39.2929 28.317 39.9504 28.9573C40.6051 29.6003 41.3963 29.9204 42.3238 29.9204C43.2514 29.9204 44.048 29.6003 44.7027 28.9627C45.3575 28.325 45.6821 27.5514 45.6821 26.6469V16.2021H45.6767Z" fill="#787878"/>
<path id="Vector_3" d="M63.1556 31.836L68.1808 23.3068L63.9959 16.2048H66.3748L69.373 21.2952L72.3903 16.2048H74.7692L70.5624 23.3068L75.6067 31.836H73.2278L69.3703 25.3183L65.5345 31.836H63.1556Z" fill="#787878"/>
<path id="Vector_4" d="M99.805 16.2021H101.884V27.2125C101.704 28.4691 101.174 29.5309 100.296 30.398C99.2293 31.4411 97.9471 31.9614 96.4494 31.9614C94.9517 31.9614 93.6695 31.4411 92.6082 30.4033C91.547 29.3655 91.015 28.1116 91.015 26.6469V16.2021H93.0938V26.6469C93.0938 27.546 93.4212 28.317 94.0787 28.9573C94.7334 29.6003 95.5246 29.9204 96.4521 29.9204C97.3797 29.9204 98.1763 29.6003 98.831 28.9627C99.483 28.325 99.8104 27.5514 99.8104 26.6469V16.2021H99.805Z" fill="#787878"/>
<path id="Vector_5" d="M122.238 26.8337H120.35V31.836H118.282V16.2048H122.819C124.104 16.3756 125.19 16.8931 126.077 17.7575C127.135 18.8007 127.664 20.0493 127.664 21.5086C127.664 22.9679 127.135 24.2378 126.077 25.281C125.343 25.9987 124.783 26.4015 124.399 26.4922L127.945 31.836H125.438L122.241 26.8337H122.238ZM120.35 18.2351V24.8008H122.238C123.158 24.8008 123.946 24.4806 124.601 23.8377C125.255 23.1947 125.586 22.4183 125.586 21.5086C125.586 20.5988 125.258 19.8305 124.601 19.1929C123.943 18.5552 123.158 18.2351 122.238 18.2351H120.35Z" fill="#787878"/>
<path id="Vector_6" d="M147.809 25.5611L142.284 16.2021H144.663L148.84 23.2747L153.025 16.2021H155.412L149.877 25.5611V31.8333H147.809V25.5611Z" fill="#787878"/>
<path id="Vector_7" d="M168.185 46.1572H165.457V15.1377L168.185 13.9905V46.1572Z" fill="#B9C2D9"/>
<path id="Vector_8" d="M65.3463 46.2106H0V3.91919H155.412C155.341 5.0317 155.554 6.58708 155.554 6.58708H2.7281V43.5454H65.3463V46.2132V46.2106Z" fill="#B9C2D9"/>
<g id="Group" opacity="0.42">
<path id="Vector_9" d="M162.019 14.9428C161.905 15.1189 161.752 15.2523 161.561 15.3403C161.324 15.439 161.078 15.4364 160.827 15.3296C160.576 15.2229 160.402 15.0522 160.301 14.8201L160.178 14.5159C160.096 14.3132 159.987 14.0757 159.853 13.8036C159.728 13.5181 159.613 13.23 159.51 12.9392C159.398 12.6618 159.289 12.387 159.185 12.1148C159.078 11.8427 158.972 11.5679 158.86 11.2905C158.757 10.9997 158.661 10.6955 158.577 10.378C158.487 10.0952 158.421 9.88448 158.375 9.74308C158.32 9.559 158.249 9.30822 158.165 8.98807C158.094 8.6786 158.028 8.37446 157.971 8.07299C157.927 7.78219 157.881 7.48872 157.837 7.19792C157.78 6.89645 157.744 6.57363 157.736 6.22681C157.709 5.90933 157.687 5.58118 157.668 5.24769C157.63 4.88486 157.622 4.50869 157.638 4.12184C157.644 3.68964 157.698 3.27879 157.796 2.88661C157.873 2.4971 157.949 2.19563 158.031 1.9822C158.14 1.6914 158.315 1.38992 158.552 1.08312C158.797 0.76297 159.038 0.52286 159.275 0.365454C159.501 0.221388 159.752 0.120009 160.022 0.0586471C160.271 0.00262139 160.543 -0.0160538 160.844 -0.00271439C161.144 0.0106251 161.449 0.0773223 161.763 0.194709C162.033 0.285418 162.309 0.408141 162.587 0.56021C162.865 0.71228 163.119 0.883025 163.348 1.06978C163.574 1.25653 163.784 1.45662 163.978 1.67005C164.175 1.90483 164.333 2.12626 164.453 2.33169C164.573 2.53712 164.666 2.76655 164.737 3.01734C164.829 3.26278 164.903 3.59894 164.96 4.02046C165.018 4.44199 165.026 4.82083 164.985 5.15432V5.29305C165.124 5.19167 165.26 5.1143 165.391 5.06361C165.593 4.95956 165.803 4.87419 166.024 4.80215C166.221 4.73546 166.433 4.67676 166.66 4.62607C166.93 4.56738 167.216 4.54337 167.517 4.55671C167.811 4.5487 168.109 4.57005 168.403 4.62074C168.676 4.67676 168.938 4.75146 169.186 4.84751C169.421 4.93555 169.612 5.01292 169.759 5.08495C169.893 5.14898 170.056 5.23969 170.25 5.35974C170.466 5.47446 170.648 5.59718 170.798 5.72524C170.97 5.85063 171.126 5.98403 171.265 6.12543C171.41 6.29084 171.532 6.45891 171.633 6.63499C171.737 6.83242 171.808 7.05385 171.843 7.30197C171.868 7.50473 171.871 7.7315 171.857 7.97694C171.843 8.22506 171.794 8.47317 171.71 8.72395C171.641 8.94805 171.532 9.1935 171.382 9.45762C171.238 9.71107 171.09 9.94051 170.938 10.1486C170.752 10.3754 170.553 10.5941 170.343 10.8022C170.13 11.013 169.89 11.2051 169.623 11.3812C169.377 11.5519 169.099 11.712 168.791 11.8614C168.504 12.0055 168.248 12.1335 168.024 12.2402C167.8 12.3469 167.623 12.4296 167.492 12.4803C167.375 12.5417 167.181 12.6191 166.905 12.7151C166.69 12.8085 166.442 12.9099 166.158 13.0193C165.907 13.11 165.681 13.206 165.479 13.3101C165.222 13.4354 164.968 13.5555 164.715 13.6622C164.461 13.7716 164.196 13.873 163.924 13.969C163.686 14.0677 163.446 14.1851 163.203 14.3212C162.917 14.4652 162.699 14.5773 162.551 14.6573C162.412 14.724 162.295 14.7827 162.202 14.8388C162.148 14.8628 162.09 14.8921 162.028 14.9295L162.019 14.9428ZM161.621 12.9952L161.654 12.9872C161.779 12.9125 161.984 12.8032 162.27 12.6591C162.573 12.4857 162.879 12.3443 163.184 12.2296C163.446 12.1255 163.694 12.0241 163.932 11.9228C164.147 11.8294 164.379 11.7253 164.625 11.6106C164.881 11.4852 165.146 11.3732 165.419 11.2771C165.678 11.1731 165.94 11.069 166.202 10.965C166.439 10.8663 166.608 10.7996 166.706 10.7649C166.813 10.7169 166.963 10.6502 167.156 10.5595C167.38 10.4527 167.626 10.3274 167.888 10.1886C168.133 10.0766 168.343 9.95918 168.518 9.83913C168.684 9.73241 168.831 9.60702 168.965 9.46029C169.102 9.33757 169.227 9.20417 169.336 9.06544C169.44 8.9027 169.549 8.73462 169.664 8.55854C169.754 8.3878 169.816 8.2464 169.849 8.13435C169.887 8.04364 169.909 7.95026 169.917 7.84888C169.925 7.7475 169.917 7.6648 169.904 7.5981C169.906 7.56342 169.904 7.53407 169.904 7.51273C169.885 7.48071 169.852 7.44336 169.805 7.39534C169.745 7.33932 169.685 7.28329 169.623 7.22727C169.524 7.16857 169.407 7.09387 169.271 7.01117C169.118 6.91779 168.982 6.84309 168.861 6.78973C168.769 6.75238 168.646 6.70436 168.49 6.64567C168.335 6.58697 168.174 6.53628 168.01 6.49093C167.852 6.46958 167.686 6.45625 167.511 6.45358C167.339 6.45358 167.195 6.46425 167.083 6.48826C166.903 6.52828 166.739 6.57096 166.594 6.61365C166.483 6.64033 166.373 6.68035 166.267 6.73904C166.161 6.79774 166.065 6.86443 165.975 6.94447C165.841 7.03251 165.716 7.13389 165.601 7.25394C165.44 7.382 165.277 7.51806 165.108 7.65946C164.947 7.78752 164.799 7.91291 164.66 8.0383C164.627 8.05698 164.589 8.07565 164.54 8.09166C164.491 8.10767 164.401 8.13435 164.273 8.16903C164.145 8.20371 164.016 8.23039 163.891 8.2464C163.765 8.26241 163.629 8.26507 163.482 8.24907C163.334 8.23573 163.214 8.19838 163.116 8.13968C163.018 8.08099 162.944 7.98228 162.887 7.84355C162.83 7.70482 162.808 7.5234 162.813 7.30197C162.832 7.18191 162.854 7.04318 162.876 6.88844C162.881 6.76038 162.89 6.59498 162.903 6.39488C162.925 6.18145 162.95 5.96002 162.98 5.73325C163.002 5.51982 163.023 5.27704 163.042 5.00491C163.056 4.80482 163.042 4.55671 163.012 4.26324C162.98 3.96977 162.936 3.75901 162.884 3.63095C162.841 3.48955 162.786 3.36149 162.723 3.24944C162.674 3.1454 162.595 3.02801 162.483 2.90262C162.371 2.77723 162.24 2.6545 162.096 2.53712C161.948 2.41973 161.79 2.31301 161.621 2.21697C161.449 2.12093 161.275 2.04622 161.097 1.99287C160.977 1.93684 160.86 1.91283 160.74 1.9155C160.617 1.89682 160.516 1.90216 160.44 1.92884C160.393 1.93951 160.355 1.95285 160.325 1.97152C160.262 2.00887 160.175 2.09691 160.066 2.23831C159.957 2.37971 159.889 2.4971 159.864 2.59581C159.804 2.74788 159.741 2.98265 159.671 3.30013C159.605 3.58293 159.572 3.87373 159.572 4.1752C159.559 4.52736 159.564 4.85018 159.586 5.14631C159.605 5.4798 159.619 5.79994 159.632 6.11209C159.662 6.39488 159.695 6.66167 159.728 6.90979C159.78 7.18725 159.829 7.47271 159.872 7.76618C159.911 8.03564 159.968 8.30776 160.044 8.57989C160.107 8.84401 160.156 9.03609 160.197 9.15615C160.246 9.31889 160.32 9.55366 160.413 9.85514C160.503 10.1379 160.59 10.4047 160.68 10.6582C160.767 10.9116 160.871 11.1864 160.988 11.4852C161.086 11.7547 161.187 12.0161 161.294 12.2696C161.386 12.515 161.49 12.7605 161.607 13.0006L161.621 12.9952Z" fill="#B9C2D9"/>
</g>
<path id="Vector_10" d="M94.8862 36.5342C94.728 36.046 94.3378 35.6805 93.915 35.6298C93.6149 35.5951 93.3366 35.7258 93.1702 35.9873C92.9956 36.2701 93.0229 36.4301 93.132 36.7503L93.1429 36.777C93.1893 36.889 93.4021 37.6333 92.9383 41.3017C92.4173 45.5143 91.6288 48.4303 90.0247 52.0506C87.4275 57.7599 84.7185 60.7239 83.2999 61.0601C82.9262 61.1481 82.727 61.0387 82.6043 60.9427C82.0014 60.4918 81.303 59.0832 81.4094 54.9319C81.4967 51.9546 81.7613 49.4094 82.3478 45.8478C82.5988 44.2924 82.6561 43.8095 82.2905 43.4814C82.0341 43.2146 81.764 43.2092 81.6249 43.2332C81.2948 43.2866 81.0274 43.5614 80.7955 44.0896C80.7164 44.2951 80.2226 45.4343 79.6879 46.5975C79.3633 47.2831 78.9622 48.1768 78.6076 48.9639C78.3784 49.4708 78.1684 49.9403 78.0047 50.2925C76.9762 52.6002 75.1129 56.4393 74.3654 57.8426C73.1214 60.121 72.4912 60.8627 72.232 61.1001C72.0983 60.6652 71.9292 59.2006 72.6249 54.4304C73.2605 50.1164 74.008 47.2057 75.4921 43.3053L75.503 43.2759C75.6803 42.665 75.754 42.4009 75.754 42.2435C75.754 41.6939 75.3584 41.2964 74.8155 41.2964C74.0025 41.2964 73.6506 42.0007 73.045 43.6068C71.3563 48.1502 70.2814 54.2303 70.3687 58.7337C70.4151 60.7293 70.6497 61.7431 71.179 62.2286C71.4245 62.4554 71.7328 62.5648 72.0738 62.5541C72.6276 62.5541 73.0368 62.2099 73.476 61.6924C74.9819 59.9556 77.5955 54.5558 79.8025 49.6629C79.6579 50.6927 79.5215 51.7892 79.4151 52.8083C79.2705 54.2383 79.2896 57.0689 79.4478 58.1281C79.9253 60.9587 80.9783 62.5434 82.577 62.8369C82.7107 62.8609 82.8443 62.8716 82.9835 62.8716C85.7443 62.8716 89.5309 58.1788 92.3709 51.1542C93.6558 48.0408 94.3651 45.6397 94.6652 43.364C95.0853 40.2879 95.1754 37.4813 94.8862 36.5342Z" fill="#D9C9B9"/>
<path id="Vector_11" d="M119.832 52.1038C119.464 52.1038 119.286 52.3519 118.992 52.7708C118.165 53.9687 116.594 55.6761 115.631 56.4258C115.221 56.7406 114.741 56.9407 114.616 56.946C114.553 56.946 114.537 56.93 114.526 56.9194C114.485 56.8793 114.354 56.6873 114.376 55.9349C114.376 55.2253 114.534 54.2648 114.954 52.392C115.303 50.8579 115.38 50.3377 115.347 49.7454C115.331 49.4599 115.284 48.7049 114.439 48.7049C114.059 48.7049 113.421 48.9157 112.242 50.7245C111.451 51.8691 110.843 53.0776 109.432 56.1937C109.713 55.1799 110.044 54.0541 110.382 52.9949C110.783 51.709 110.895 51.4369 111.064 51.1754C112.526 49.1185 113.612 47.3256 114.807 44.9886C115.306 44.0121 116.487 41.6377 116.695 40.6746C116.869 40.013 116.73 39.4714 116.324 39.2286C116.133 39.1139 115.609 38.9191 114.878 39.5514C113.68 40.5759 111.779 43.6306 110.147 47.1522C109.378 48.8277 108.786 50.335 108.298 51.8824C108.24 51.8637 108.18 51.8504 108.112 51.8424H108.077C107.654 51.8424 107.457 52.1492 107.021 52.8962C105.365 55.5374 103.412 58.0959 102.787 58.6108C102.418 58.8883 102.241 58.9896 102.157 59.0217C102.132 58.9763 102.091 58.8829 102.037 58.7042C101.947 58.4614 101.944 58.2506 101.944 57.1701C101.944 55.8282 102.047 54.8864 102.41 52.9762C102.669 51.5729 102.779 51.1967 103.147 50.4471C103.335 50.0415 103.583 49.508 103.834 48.9744C104.443 47.6778 104.691 47.1469 104.792 46.9014C105.204 46.8508 106.562 46.7627 107.46 46.7627C108.148 46.7627 108.494 46.7627 108.652 46.4559L108.671 46.4106C108.778 46.1171 108.696 45.9143 108.609 45.7943C108.349 45.4394 107.776 45.3887 106.175 45.4128L105.439 45.4448C105.499 45.3034 105.572 45.1166 105.67 44.8738C105.774 44.6151 105.891 44.3243 106.011 44.0388C106.612 42.6675 107.255 41.0054 107.416 40.4051C107.569 39.8129 107.517 39.3273 107.28 39.0498C107.015 38.7244 106.68 38.7297 106.412 38.7564C104.977 38.8204 102.307 45.282 102.285 45.3381C102.26 45.3914 102.241 45.4394 102.222 45.4848C102.195 45.5515 102.162 45.6315 102.157 45.6422C102.072 45.6929 101.646 45.7329 101.109 45.7863L100.79 45.8183C98.1981 46.0904 97.6989 46.2051 97.4588 46.5813C97.3851 46.696 97.3169 46.8908 97.407 47.1309C97.5816 47.7312 98.2063 47.6244 98.6019 47.5551C99.0084 47.4617 100.803 47.2269 101.608 47.1389C101.248 48.158 100.782 49.7561 100.555 50.7645C100.416 51.3622 100.307 51.9758 100.214 52.5947C99.9059 52.6961 99.7149 53.0723 99.5894 53.3204C99.1911 54.0727 97.5843 56.0016 96.8723 56.5885C96.6049 56.794 96.3948 56.8874 96.2857 56.9167C96.163 56.5645 96.193 55.1426 97.0114 52.4507C97.1642 52.0585 97.2678 51.5863 97.2678 51.3995C97.2678 51.1647 97.1833 50.9646 97.0414 50.8152C97.5106 50.7005 97.8571 50.295 97.8571 49.8148C97.8571 49.2198 97.3797 48.753 96.7713 48.753C96.163 48.753 95.7128 49.2305 95.7128 49.8148C95.7128 50.1376 95.8656 50.4257 96.1029 50.6151C95.6664 50.7725 95.47 51.3061 95.1126 52.2826C94.4497 54.2862 94.2369 55.3373 94.2997 56.2951C94.3706 57.2609 94.788 58.0105 95.41 58.296C95.6501 58.4134 95.8901 58.4667 96.1302 58.4667C97.1996 58.4667 98.2363 57.4183 99.0629 56.4365L99.0684 56.4285C99.4394 55.9643 99.734 55.5694 99.9796 55.2226C99.9605 55.7935 99.9632 56.3538 99.9878 56.898C100.119 58.8909 100.531 59.9848 101.325 60.4356C101.556 60.5931 101.848 60.6144 102.077 60.6144C103.177 60.6144 103.963 59.7847 105.624 57.4476C106.249 56.5752 107.103 55.2493 107.594 54.4756C107.46 55.0332 107.335 55.6094 107.215 56.2124C106.803 58.1466 106.677 59.019 106.677 59.9528C106.677 60.8011 106.74 61.2333 107.111 61.5508L107.195 61.6068C107.411 61.7136 107.607 61.7643 107.79 61.7643C108.549 61.7643 108.633 61.5722 110.816 56.6846C111.754 54.617 112.553 53.0536 113.38 51.685C112.772 54.1341 112.684 54.689 112.684 55.8869V57.0474L112.905 57.477C113.074 57.8078 113.274 58.0372 113.516 58.1786C113.849 58.4187 114.024 58.4187 114.479 58.4187C115.331 58.4187 116.103 58.0319 117.057 57.1301C118.015 56.2551 119.521 54.4302 120.105 53.4431C120.41 52.9629 120.484 52.6187 120.337 52.3599C120.238 52.1865 120.058 52.0878 119.843 52.0878L119.832 52.1038ZM103.744 46.568L103.864 46.7387C103.864 46.7387 103.864 46.7387 103.864 46.7414L103.747 46.568H103.744Z" fill="#D9C9B9"/>
<path id="Vector_12" d="M172.973 52.7548C172.94 52.6507 172.85 52.4666 172.588 52.3839C172.127 52.2159 171.786 52.6347 171.491 52.9949C171.085 53.4724 169.252 55.2439 168.54 55.8255C166.944 57.1248 166.076 57.2902 165.893 57.0767C165.741 56.9113 165.705 56.7859 165.732 56.0336C165.76 55.3533 165.885 54.8277 166.242 53.926C166.275 53.8326 166.297 53.7792 166.311 53.7472C167.055 53.5285 167.98 52.6134 168.51 51.5756C168.878 50.9246 168.881 50.3937 168.499 49.9748C168.283 49.7641 167.808 49.4759 167.031 49.9108C166.163 50.4044 165.342 51.4128 164.728 52.7201C164.486 52.6587 164.24 52.7628 164.136 52.8081C163.733 53.0055 162.772 52.7441 162.497 52.3519C162.159 51.9037 161.94 50.6231 162.068 49.8681C162.156 49.4199 162.199 49.0864 161.981 48.849C161.85 48.7076 161.662 48.6489 161.419 48.6729L161.376 48.6782C160.947 48.7316 160.887 48.937 160.672 49.6947L160.625 49.8574C160.366 50.7885 159.488 52.608 158.486 54.2861C157.856 55.3506 157.33 56.111 157 56.5298C156.951 56.0016 156.942 55.0972 157.068 54.0487C157.188 53.1763 157.48 51.2394 157.592 50.8019C157.671 50.4657 157.63 50.1936 157.469 49.9962C157.332 49.8281 157.12 49.7347 156.869 49.7347C156.601 49.7347 156.383 49.8681 156.23 50.1216C156.132 50.271 155.993 50.7112 155.848 51.2688C155.622 51.178 155.308 51.2261 154.853 51.2981C153.95 51.4582 152.561 51.4342 151.827 51.2501C150.984 51.01 150.632 50.8179 150.125 50.3216L149.778 49.9615L149.787 49.9268C149.833 49.7054 149.855 49.532 149.855 49.3879C149.855 49.0811 149.705 48.8303 149.44 48.6996C149.085 48.5235 148.589 48.6062 148.147 48.9183C147.247 49.5453 146.145 51.4475 145.495 53.3097C145.239 53.3951 144.996 53.6832 144.554 54.2461C142.473 56.9087 139.799 59.7953 138.588 60.6864C136.353 62.3912 134.583 62.8207 133.726 61.8629C132.831 60.8545 132.58 58.7522 133.001 55.7695L133.036 55.4253L133.35 55.2893L133.38 55.2759C134.034 54.9264 135.028 54.2541 135.753 53.6699C136.533 53.0002 137.903 51.5942 138.743 50.6018C142.246 46.5039 144.475 41.9765 144.289 39.3406C144.213 38.1694 143.687 37.6465 143.261 37.4117C142.522 37.0089 141.488 37.1343 140.274 37.7719C138.746 38.5643 136.814 40.5252 135.235 42.8889C133.26 45.7996 131.721 49.5746 130.9 53.5311C130.856 53.7872 130.804 54.0327 130.766 54.2274C130.75 54.3021 130.739 54.3608 130.728 54.4142C130.695 54.4142 130.66 54.4089 130.63 54.4089C130.341 54.3848 130.144 54.3422 129.888 54.2435C129.479 54.0167 129.389 53.9286 129.266 53.6458C129.064 53.1656 128.745 52.8668 128.363 52.8081C128.044 52.7574 127.73 52.8828 127.49 53.1576C127.121 53.5631 127.168 54.1607 127.613 54.7557C128.172 55.4974 129.099 55.9402 130.308 56.0416L130.526 56.0523L130.507 56.8366C130.472 57.7117 130.482 58.3653 130.537 58.7655C130.821 61.4121 131.983 63.3169 133.636 63.8559C133.928 63.9572 134.291 63.9973 134.665 63.9973C135.088 63.9973 135.524 63.9439 135.884 63.8639C136.934 63.5837 138.113 62.9088 139.193 61.967C140.47 60.9052 143.277 57.8344 144.947 55.7081C144.914 56.3031 144.971 57.01 145.108 57.4369C145.367 58.1946 145.967 58.7762 146.6 58.8856C146.701 58.9043 146.805 58.9123 146.911 58.9123C147.948 58.9123 149.148 58.0238 150.117 56.5112C150.531 55.8549 150.777 55.2733 150.987 54.4542C151.148 53.918 151.181 53.6725 151.181 52.9869V52.7254C152.307 53.0749 153.595 53.0909 154.831 52.7681C155.098 52.6961 155.346 52.6187 155.554 52.528C155.406 53.2243 155.281 53.9206 155.226 54.3982C155.079 55.3506 155.085 56.9193 155.306 57.4156C155.494 57.9278 155.767 58.2853 156.097 58.4454C156.299 58.5441 156.49 58.5868 156.67 58.5868C157.221 58.5868 157.674 58.1919 158.025 57.8131C158.814 56.9807 160.028 54.8544 160.977 52.6507C161.337 53.4057 161.943 53.8539 162.843 54.0407C163.302 54.1501 163.787 54.1554 164.194 54.078C163.967 54.7744 163.91 55.2599 163.885 55.9269C163.885 56.7913 164 57.2475 164.355 57.7997C164.597 58.2079 164.917 58.4507 165.446 58.6348C165.691 58.7282 165.91 58.7735 166.142 58.7735C166.338 58.7735 166.543 58.7415 166.788 58.6775C167.361 58.5307 168.005 58.1973 168.711 57.677C169.399 57.1274 171.483 55.1105 172.127 54.3368C172.891 53.4431 173.085 53.0883 172.978 52.7468L172.973 52.7548ZM147.239 57.0821L147.168 57.1141C147.143 57.1301 147.118 57.1408 147.102 57.1514C146.837 56.6392 147.239 53.9606 148.433 51.5302C148.466 51.4528 148.502 51.3808 148.532 51.3141C148.578 51.3488 148.627 51.3861 148.687 51.4315C148.788 51.5089 148.9 51.5942 149.004 51.6743C149.208 51.8317 149.325 51.9251 149.391 51.9651C149.516 52.0478 149.607 52.4079 149.653 53.0402C149.707 54.1554 149.293 55.1425 148.341 56.1483C147.683 56.866 147.353 57.0367 147.239 57.0767V57.0821ZM133.925 51.5169C134.962 47.9099 137.109 43.8013 139.267 41.2935C140.418 39.9542 141.635 39.0258 142.363 38.9271C142.415 38.9218 142.442 38.9191 142.456 38.9191C142.462 38.9191 142.464 38.9191 142.464 38.9191C142.467 38.9191 142.486 38.9298 142.535 38.9698C142.612 39.0472 142.669 39.1325 142.677 39.1565L142.685 39.1939C142.743 39.3833 142.759 40.2077 142.674 40.7012C142.314 42.4887 141.054 45.17 139.466 47.5284C137.791 49.9722 135.281 52.4666 133.38 53.5871C133.535 52.9522 133.773 52.0211 133.925 51.5195V51.5169Z" fill="#D9C9B9"/>
</g>
<defs>
<clipPath id="clip0_1_21">
<rect width="173" height="64" fill="white"/>
</clipPath>
</defs>
</svg>
